<mxfile host="app.diagrams.net" modified="2023-05-26T13:24:40.486Z" agent="Mozilla/5.0 (Macintosh; Intel Mac OS X 10_15_7) AppleWebKit/537.36 (KHTML, like Gecko) Chrome/113.0.0.0 Safari/537.36" etag="F6e14z9-cDowqmh7xAaB" version="21.3.2" type="github">
  <diagram id="C5RBs43oDa-KdzZeNtuy" name="Page-1">
    <mxGraphModel dx="1781" dy="616" grid="1" gridSize="10" guides="1" tooltips="1" connect="1" arrows="1" fold="1" page="1" pageScale="1" pageWidth="827" pageHeight="1169" math="0" shadow="0">
      <root>
        <mxCell id="WIyWlLk6GJQsqaUBKTNV-0" />
        <mxCell id="WIyWlLk6GJQsqaUBKTNV-1" parent="WIyWlLk6GJQsqaUBKTNV-0" />
        <mxCell id="WIyWlLk6GJQsqaUBKTNV-2" value="" style="rounded=0;html=1;jettySize=auto;orthogonalLoop=1;fontSize=11;endArrow=block;endFill=0;endSize=8;strokeWidth=1;shadow=0;labelBackgroundColor=none;edgeStyle=orthogonalEdgeStyle;" parent="WIyWlLk6GJQsqaUBKTNV-1" source="WIyWlLk6GJQsqaUBKTNV-3" target="WIyWlLk6GJQsqaUBKTNV-6" edge="1">
          <mxGeometry relative="1" as="geometry" />
        </mxCell>
        <mxCell id="WIyWlLk6GJQsqaUBKTNV-3" value="СТАРТ&lt;span style=&quot;font-size: medium; text-align: start;&quot;&gt;&lt;/span&gt;" style="rounded=1;whiteSpace=wrap;html=1;fontSize=12;glass=0;strokeWidth=1;shadow=0;" parent="WIyWlLk6GJQsqaUBKTNV-1" vertex="1">
          <mxGeometry x="160" y="80" width="120" height="40" as="geometry" />
        </mxCell>
        <mxCell id="aU7_cbtDEvk05i0n9Riy-11" value="" style="edgeStyle=orthogonalEdgeStyle;rounded=0;orthogonalLoop=1;jettySize=auto;html=1;" edge="1" parent="WIyWlLk6GJQsqaUBKTNV-1" source="WIyWlLk6GJQsqaUBKTNV-6" target="aU7_cbtDEvk05i0n9Riy-9">
          <mxGeometry relative="1" as="geometry" />
        </mxCell>
        <mxCell id="aU7_cbtDEvk05i0n9Riy-15" style="edgeStyle=orthogonalEdgeStyle;rounded=0;orthogonalLoop=1;jettySize=auto;html=1;entryX=0.5;entryY=0;entryDx=0;entryDy=0;" edge="1" parent="WIyWlLk6GJQsqaUBKTNV-1" source="WIyWlLk6GJQsqaUBKTNV-6" target="aU7_cbtDEvk05i0n9Riy-14">
          <mxGeometry relative="1" as="geometry" />
        </mxCell>
        <mxCell id="aU7_cbtDEvk05i0n9Riy-16" style="edgeStyle=orthogonalEdgeStyle;rounded=0;orthogonalLoop=1;jettySize=auto;html=1;" edge="1" parent="WIyWlLk6GJQsqaUBKTNV-1" source="WIyWlLk6GJQsqaUBKTNV-6" target="aU7_cbtDEvk05i0n9Riy-13">
          <mxGeometry relative="1" as="geometry" />
        </mxCell>
        <mxCell id="aU7_cbtDEvk05i0n9Riy-93" style="edgeStyle=orthogonalEdgeStyle;rounded=0;orthogonalLoop=1;jettySize=auto;html=1;" edge="1" parent="WIyWlLk6GJQsqaUBKTNV-1" source="WIyWlLk6GJQsqaUBKTNV-6" target="aU7_cbtDEvk05i0n9Riy-91">
          <mxGeometry relative="1" as="geometry" />
        </mxCell>
        <mxCell id="WIyWlLk6GJQsqaUBKTNV-6" value="Вы желаете:&lt;br&gt;Забронировать столик&lt;br&gt;Внести изменение в бронь или отказаться от брони&lt;br&gt;Другой вопрос&lt;span style=&quot;font-size: medium; text-align: start;&quot;&gt;&lt;/span&gt;" style="rhombus;whiteSpace=wrap;html=1;shadow=0;fontFamily=Helvetica;fontSize=12;align=center;strokeWidth=1;spacing=6;spacingTop=-4;" parent="WIyWlLk6GJQsqaUBKTNV-1" vertex="1">
          <mxGeometry x="105" y="180" width="230" height="150" as="geometry" />
        </mxCell>
        <mxCell id="aU7_cbtDEvk05i0n9Riy-20" style="edgeStyle=orthogonalEdgeStyle;rounded=0;orthogonalLoop=1;jettySize=auto;html=1;" edge="1" parent="WIyWlLk6GJQsqaUBKTNV-1" source="aU7_cbtDEvk05i0n9Riy-9" target="aU7_cbtDEvk05i0n9Riy-19">
          <mxGeometry relative="1" as="geometry" />
        </mxCell>
        <mxCell id="aU7_cbtDEvk05i0n9Riy-9" value="Забронировать столик&lt;span style=&quot;font-size: medium; text-align: start;&quot;&gt;&lt;/span&gt;" style="shape=parallelogram;perimeter=parallelogramPerimeter;whiteSpace=wrap;html=1;fixedSize=1;" vertex="1" parent="WIyWlLk6GJQsqaUBKTNV-1">
          <mxGeometry x="90" y="380" width="120" height="60" as="geometry" />
        </mxCell>
        <mxCell id="aU7_cbtDEvk05i0n9Riy-13" value="Другой вопрос&lt;br&gt;&lt;br&gt;&lt;span style=&quot;font-size: medium; text-align: start;&quot;&gt;&lt;/span&gt;" style="shape=parallelogram;perimeter=parallelogramPerimeter;whiteSpace=wrap;html=1;fixedSize=1;" vertex="1" parent="WIyWlLk6GJQsqaUBKTNV-1">
          <mxGeometry x="470" y="380" width="120" height="60" as="geometry" />
        </mxCell>
        <mxCell id="aU7_cbtDEvk05i0n9Riy-14" value="Внести изменение в бронь или отказаться от брони&lt;span style=&quot;font-size: medium; text-align: start;&quot;&gt;&lt;/span&gt;" style="shape=parallelogram;perimeter=parallelogramPerimeter;whiteSpace=wrap;html=1;fixedSize=1;" vertex="1" parent="WIyWlLk6GJQsqaUBKTNV-1">
          <mxGeometry x="220" y="380" width="210" height="60" as="geometry" />
        </mxCell>
        <mxCell id="aU7_cbtDEvk05i0n9Riy-23" style="edgeStyle=orthogonalEdgeStyle;rounded=0;orthogonalLoop=1;jettySize=auto;html=1;" edge="1" parent="WIyWlLk6GJQsqaUBKTNV-1" source="aU7_cbtDEvk05i0n9Riy-19" target="aU7_cbtDEvk05i0n9Riy-21">
          <mxGeometry relative="1" as="geometry" />
        </mxCell>
        <mxCell id="aU7_cbtDEvk05i0n9Riy-24" style="edgeStyle=orthogonalEdgeStyle;rounded=0;orthogonalLoop=1;jettySize=auto;html=1;" edge="1" parent="WIyWlLk6GJQsqaUBKTNV-1" source="aU7_cbtDEvk05i0n9Riy-19" target="aU7_cbtDEvk05i0n9Riy-22">
          <mxGeometry relative="1" as="geometry" />
        </mxCell>
        <mxCell id="aU7_cbtDEvk05i0n9Riy-19" value="&lt;p style=&quot;margin: 0cm 0cm 0cm 72pt; line-height: 16.8667px; font-size: 11pt; font-family: Arial, sans-serif; text-align: start; text-indent: -18pt;&quot; class=&quot;MsoNormal&quot;&gt;&lt;span lang=&quot;ru&quot;&gt;В какой из наших баров-музеев ваша дружина знатная путь держит?&lt;/span&gt;&lt;/p&gt;" style="rhombus;whiteSpace=wrap;html=1;" vertex="1" parent="WIyWlLk6GJQsqaUBKTNV-1">
          <mxGeometry x="10" y="480" width="360" height="170" as="geometry" />
        </mxCell>
        <mxCell id="aU7_cbtDEvk05i0n9Riy-50" value="" style="edgeStyle=orthogonalEdgeStyle;rounded=0;orthogonalLoop=1;jettySize=auto;html=1;" edge="1" parent="WIyWlLk6GJQsqaUBKTNV-1" source="aU7_cbtDEvk05i0n9Riy-21" target="aU7_cbtDEvk05i0n9Riy-34">
          <mxGeometry relative="1" as="geometry" />
        </mxCell>
        <mxCell id="aU7_cbtDEvk05i0n9Riy-21" value="Славянский бар-музей “Пьяна Ель” на улице Пестеля, 21 (м. Чернышевская / Невский проспект / Маяковская)&lt;span style=&quot;font-size: medium; text-align: start;&quot;&gt;&lt;/span&gt;" style="shape=parallelogram;perimeter=parallelogramPerimeter;whiteSpace=wrap;html=1;fixedSize=1;" vertex="1" parent="WIyWlLk6GJQsqaUBKTNV-1">
          <mxGeometry x="10" y="680" width="240" height="120" as="geometry" />
        </mxCell>
        <mxCell id="aU7_cbtDEvk05i0n9Riy-22" value="Скандинавский бар-музей “SKAL! Наследие Севера” на улице Правды, 12 (м. Владимирская / Достоевская / Звенигородская)&lt;span style=&quot;font-size: medium; text-align: start;&quot;&gt;&lt;/span&gt;" style="shape=parallelogram;perimeter=parallelogramPerimeter;whiteSpace=wrap;html=1;fixedSize=1;" vertex="1" parent="WIyWlLk6GJQsqaUBKTNV-1">
          <mxGeometry x="280" y="680" width="240" height="120" as="geometry" />
        </mxCell>
        <mxCell id="aU7_cbtDEvk05i0n9Riy-39" style="edgeStyle=orthogonalEdgeStyle;rounded=0;orthogonalLoop=1;jettySize=auto;html=1;" edge="1" parent="WIyWlLk6GJQsqaUBKTNV-1" source="aU7_cbtDEvk05i0n9Riy-29" target="aU7_cbtDEvk05i0n9Riy-36">
          <mxGeometry relative="1" as="geometry" />
        </mxCell>
        <mxCell id="aU7_cbtDEvk05i0n9Riy-72" style="edgeStyle=orthogonalEdgeStyle;rounded=0;orthogonalLoop=1;jettySize=auto;html=1;" edge="1" parent="WIyWlLk6GJQsqaUBKTNV-1" source="aU7_cbtDEvk05i0n9Riy-29" target="aU7_cbtDEvk05i0n9Riy-69">
          <mxGeometry relative="1" as="geometry" />
        </mxCell>
        <mxCell id="aU7_cbtDEvk05i0n9Riy-29" value="Ответ: Время&lt;span style=&quot;font-size: medium; text-align: start;&quot;&gt;&lt;/span&gt;" style="shape=parallelogram;perimeter=parallelogramPerimeter;whiteSpace=wrap;html=1;fixedSize=1;" vertex="1" parent="WIyWlLk6GJQsqaUBKTNV-1">
          <mxGeometry x="10" y="1250" width="120" height="60" as="geometry" />
        </mxCell>
        <mxCell id="aU7_cbtDEvk05i0n9Riy-38" style="edgeStyle=orthogonalEdgeStyle;rounded=0;orthogonalLoop=1;jettySize=auto;html=1;" edge="1" parent="WIyWlLk6GJQsqaUBKTNV-1" source="aU7_cbtDEvk05i0n9Riy-30" target="aU7_cbtDEvk05i0n9Riy-29">
          <mxGeometry relative="1" as="geometry" />
        </mxCell>
        <mxCell id="aU7_cbtDEvk05i0n9Riy-30" value="В котором часу ожидать вороных?&lt;span style=&quot;font-size: medium; text-align: start;&quot;&gt;&lt;/span&gt;" style="shape=parallelogram;perimeter=parallelogramPerimeter;whiteSpace=wrap;html=1;fixedSize=1;" vertex="1" parent="WIyWlLk6GJQsqaUBKTNV-1">
          <mxGeometry x="10" y="1160" width="190" height="60" as="geometry" />
        </mxCell>
        <mxCell id="aU7_cbtDEvk05i0n9Riy-41" style="edgeStyle=orthogonalEdgeStyle;rounded=0;orthogonalLoop=1;jettySize=auto;html=1;" edge="1" parent="WIyWlLk6GJQsqaUBKTNV-1" source="aU7_cbtDEvk05i0n9Riy-31" target="aU7_cbtDEvk05i0n9Riy-30">
          <mxGeometry relative="1" as="geometry" />
        </mxCell>
        <mxCell id="aU7_cbtDEvk05i0n9Riy-71" style="edgeStyle=orthogonalEdgeStyle;rounded=0;orthogonalLoop=1;jettySize=auto;html=1;entryX=0;entryY=0.5;entryDx=0;entryDy=0;" edge="1" parent="WIyWlLk6GJQsqaUBKTNV-1" source="aU7_cbtDEvk05i0n9Riy-31" target="aU7_cbtDEvk05i0n9Riy-69">
          <mxGeometry relative="1" as="geometry" />
        </mxCell>
        <mxCell id="aU7_cbtDEvk05i0n9Riy-31" value="Ответ: Дата&lt;span style=&quot;font-size: medium; text-align: start;&quot;&gt;&lt;br&gt;&lt;/span&gt;" style="shape=parallelogram;perimeter=parallelogramPerimeter;whiteSpace=wrap;html=1;fixedSize=1;" vertex="1" parent="WIyWlLk6GJQsqaUBKTNV-1">
          <mxGeometry x="10" y="1080" width="120" height="60" as="geometry" />
        </mxCell>
        <mxCell id="aU7_cbtDEvk05i0n9Riy-53" value="" style="edgeStyle=orthogonalEdgeStyle;rounded=0;orthogonalLoop=1;jettySize=auto;html=1;" edge="1" parent="WIyWlLk6GJQsqaUBKTNV-1" source="aU7_cbtDEvk05i0n9Riy-32" target="aU7_cbtDEvk05i0n9Riy-31">
          <mxGeometry relative="1" as="geometry" />
        </mxCell>
        <mxCell id="aU7_cbtDEvk05i0n9Riy-32" value="В какой день ваша дружина желает отобедать?&lt;span style=&quot;font-size: medium; text-align: start;&quot;&gt;&lt;/span&gt;" style="shape=parallelogram;perimeter=parallelogramPerimeter;whiteSpace=wrap;html=1;fixedSize=1;" vertex="1" parent="WIyWlLk6GJQsqaUBKTNV-1">
          <mxGeometry x="10" y="1000" width="200" height="60" as="geometry" />
        </mxCell>
        <mxCell id="aU7_cbtDEvk05i0n9Riy-52" value="" style="edgeStyle=orthogonalEdgeStyle;rounded=0;orthogonalLoop=1;jettySize=auto;html=1;" edge="1" parent="WIyWlLk6GJQsqaUBKTNV-1" source="aU7_cbtDEvk05i0n9Riy-33" target="aU7_cbtDEvk05i0n9Riy-32">
          <mxGeometry relative="1" as="geometry" />
        </mxCell>
        <mxCell id="aU7_cbtDEvk05i0n9Riy-70" value="" style="edgeStyle=orthogonalEdgeStyle;rounded=0;orthogonalLoop=1;jettySize=auto;html=1;" edge="1" parent="WIyWlLk6GJQsqaUBKTNV-1" source="aU7_cbtDEvk05i0n9Riy-33" target="aU7_cbtDEvk05i0n9Riy-69">
          <mxGeometry relative="1" as="geometry" />
        </mxCell>
        <mxCell id="aU7_cbtDEvk05i0n9Riy-33" value="Ответ: цифра&lt;span style=&quot;font-size: medium; text-align: start;&quot;&gt;&lt;/span&gt;" style="shape=parallelogram;perimeter=parallelogramPerimeter;whiteSpace=wrap;html=1;fixedSize=1;" vertex="1" parent="WIyWlLk6GJQsqaUBKTNV-1">
          <mxGeometry x="10" y="920" width="120" height="60" as="geometry" />
        </mxCell>
        <mxCell id="aU7_cbtDEvk05i0n9Riy-51" value="" style="edgeStyle=orthogonalEdgeStyle;rounded=0;orthogonalLoop=1;jettySize=auto;html=1;" edge="1" parent="WIyWlLk6GJQsqaUBKTNV-1" source="aU7_cbtDEvk05i0n9Riy-34" target="aU7_cbtDEvk05i0n9Riy-33">
          <mxGeometry relative="1" as="geometry" />
        </mxCell>
        <mxCell id="aU7_cbtDEvk05i0n9Riy-34" value="Какова численность вашей дружины?&lt;span style=&quot;font-size: medium; text-align: start;&quot;&gt;&lt;/span&gt;" style="shape=parallelogram;perimeter=parallelogramPerimeter;whiteSpace=wrap;html=1;fixedSize=1;" vertex="1" parent="WIyWlLk6GJQsqaUBKTNV-1">
          <mxGeometry x="10" y="830" width="200" height="60" as="geometry" />
        </mxCell>
        <mxCell id="aU7_cbtDEvk05i0n9Riy-49" style="edgeStyle=orthogonalEdgeStyle;rounded=0;orthogonalLoop=1;jettySize=auto;html=1;" edge="1" parent="WIyWlLk6GJQsqaUBKTNV-1" source="aU7_cbtDEvk05i0n9Riy-35" target="aU7_cbtDEvk05i0n9Riy-45">
          <mxGeometry relative="1" as="geometry" />
        </mxCell>
        <mxCell id="aU7_cbtDEvk05i0n9Riy-73" style="edgeStyle=orthogonalEdgeStyle;rounded=0;orthogonalLoop=1;jettySize=auto;html=1;" edge="1" parent="WIyWlLk6GJQsqaUBKTNV-1" source="aU7_cbtDEvk05i0n9Riy-35">
          <mxGeometry relative="1" as="geometry">
            <mxPoint x="410" y="1060" as="targetPoint" />
          </mxGeometry>
        </mxCell>
        <mxCell id="aU7_cbtDEvk05i0n9Riy-35" value="Ответ: Имя&lt;span style=&quot;font-size: medium; text-align: start;&quot;&gt;&lt;/span&gt;" style="shape=parallelogram;perimeter=parallelogramPerimeter;whiteSpace=wrap;html=1;fixedSize=1;" vertex="1" parent="WIyWlLk6GJQsqaUBKTNV-1">
          <mxGeometry x="10" y="1420" width="120" height="60" as="geometry" />
        </mxCell>
        <mxCell id="aU7_cbtDEvk05i0n9Riy-40" style="edgeStyle=orthogonalEdgeStyle;rounded=0;orthogonalLoop=1;jettySize=auto;html=1;" edge="1" parent="WIyWlLk6GJQsqaUBKTNV-1" source="aU7_cbtDEvk05i0n9Riy-36" target="aU7_cbtDEvk05i0n9Riy-35">
          <mxGeometry relative="1" as="geometry" />
        </mxCell>
        <mxCell id="aU7_cbtDEvk05i0n9Riy-36" value="&lt;p style=&quot;margin: 0cm 0cm 0cm 72pt; line-height: 16.8667px; font-size: 11pt; font-family: Arial, sans-serif; text-align: start; text-indent: -18pt;&quot; class=&quot;MsoNormal&quot;&gt;На чье имя доброе оформить бронь?&lt;br&gt;&lt;/p&gt;" style="shape=parallelogram;perimeter=parallelogramPerimeter;whiteSpace=wrap;html=1;fixedSize=1;" vertex="1" parent="WIyWlLk6GJQsqaUBKTNV-1">
          <mxGeometry x="10" y="1330" width="220" height="60" as="geometry" />
        </mxCell>
        <mxCell id="aU7_cbtDEvk05i0n9Riy-55" value="" style="edgeStyle=orthogonalEdgeStyle;rounded=0;orthogonalLoop=1;jettySize=auto;html=1;" edge="1" parent="WIyWlLk6GJQsqaUBKTNV-1" source="aU7_cbtDEvk05i0n9Riy-43" target="aU7_cbtDEvk05i0n9Riy-54">
          <mxGeometry relative="1" as="geometry" />
        </mxCell>
        <mxCell id="aU7_cbtDEvk05i0n9Riy-74" style="edgeStyle=orthogonalEdgeStyle;rounded=0;orthogonalLoop=1;jettySize=auto;html=1;" edge="1" parent="WIyWlLk6GJQsqaUBKTNV-1" source="aU7_cbtDEvk05i0n9Riy-43" target="aU7_cbtDEvk05i0n9Riy-69">
          <mxGeometry relative="1" as="geometry" />
        </mxCell>
        <mxCell id="aU7_cbtDEvk05i0n9Riy-43" value="Ответ: Телефон&lt;span style=&quot;font-size: medium; text-align: start;&quot;&gt;&lt;/span&gt;" style="shape=parallelogram;perimeter=parallelogramPerimeter;whiteSpace=wrap;html=1;fixedSize=1;" vertex="1" parent="WIyWlLk6GJQsqaUBKTNV-1">
          <mxGeometry x="10" y="1600" width="120" height="60" as="geometry" />
        </mxCell>
        <mxCell id="aU7_cbtDEvk05i0n9Riy-44" style="edgeStyle=orthogonalEdgeStyle;rounded=0;orthogonalLoop=1;jettySize=auto;html=1;" edge="1" parent="WIyWlLk6GJQsqaUBKTNV-1" source="aU7_cbtDEvk05i0n9Riy-45" target="aU7_cbtDEvk05i0n9Riy-43">
          <mxGeometry relative="1" as="geometry" />
        </mxCell>
        <mxCell id="aU7_cbtDEvk05i0n9Riy-45" value="Назовите цифры кудесные своего гаджета заморского&lt;br&gt;&lt;br&gt;&lt;span style=&quot;font-size: medium; text-align: start;&quot;&gt;&lt;/span&gt;" style="shape=parallelogram;perimeter=parallelogramPerimeter;whiteSpace=wrap;html=1;fixedSize=1;" vertex="1" parent="WIyWlLk6GJQsqaUBKTNV-1">
          <mxGeometry x="10" y="1510" width="230" height="60" as="geometry" />
        </mxCell>
        <mxCell id="aU7_cbtDEvk05i0n9Riy-64" value="" style="edgeStyle=orthogonalEdgeStyle;rounded=0;orthogonalLoop=1;jettySize=auto;html=1;" edge="1" parent="WIyWlLk6GJQsqaUBKTNV-1" source="aU7_cbtDEvk05i0n9Riy-46" target="aU7_cbtDEvk05i0n9Riy-63">
          <mxGeometry relative="1" as="geometry" />
        </mxCell>
        <mxCell id="aU7_cbtDEvk05i0n9Riy-75" style="edgeStyle=orthogonalEdgeStyle;rounded=0;orthogonalLoop=1;jettySize=auto;html=1;" edge="1" parent="WIyWlLk6GJQsqaUBKTNV-1" source="aU7_cbtDEvk05i0n9Riy-46" target="aU7_cbtDEvk05i0n9Riy-69">
          <mxGeometry relative="1" as="geometry">
            <Array as="points">
              <mxPoint x="480" y="1920" />
              <mxPoint x="480" y="1030" />
            </Array>
          </mxGeometry>
        </mxCell>
        <mxCell id="aU7_cbtDEvk05i0n9Riy-46" value="да" style="shape=parallelogram;perimeter=parallelogramPerimeter;whiteSpace=wrap;html=1;fixedSize=1;" vertex="1" parent="WIyWlLk6GJQsqaUBKTNV-1">
          <mxGeometry x="20" y="1890" width="120" height="60" as="geometry" />
        </mxCell>
        <mxCell id="aU7_cbtDEvk05i0n9Riy-56" value="" style="edgeStyle=orthogonalEdgeStyle;rounded=0;orthogonalLoop=1;jettySize=auto;html=1;" edge="1" parent="WIyWlLk6GJQsqaUBKTNV-1" source="aU7_cbtDEvk05i0n9Riy-54" target="aU7_cbtDEvk05i0n9Riy-46">
          <mxGeometry relative="1" as="geometry" />
        </mxCell>
        <mxCell id="aU7_cbtDEvk05i0n9Riy-58" style="edgeStyle=orthogonalEdgeStyle;rounded=0;orthogonalLoop=1;jettySize=auto;html=1;" edge="1" parent="WIyWlLk6GJQsqaUBKTNV-1" source="aU7_cbtDEvk05i0n9Riy-54" target="aU7_cbtDEvk05i0n9Riy-57">
          <mxGeometry relative="1" as="geometry" />
        </mxCell>
        <mxCell id="aU7_cbtDEvk05i0n9Riy-54" value="Отмечаете ли вы какое-либо событие (День Рождения, Свадьба и т.д.)&lt;span style=&quot;font-size: medium; text-align: start;&quot;&gt;&lt;/span&gt;" style="rhombus;whiteSpace=wrap;html=1;" vertex="1" parent="WIyWlLk6GJQsqaUBKTNV-1">
          <mxGeometry x="30" y="1690" width="190" height="140" as="geometry" />
        </mxCell>
        <mxCell id="aU7_cbtDEvk05i0n9Riy-66" style="edgeStyle=orthogonalEdgeStyle;rounded=0;orthogonalLoop=1;jettySize=auto;html=1;" edge="1" parent="WIyWlLk6GJQsqaUBKTNV-1" source="aU7_cbtDEvk05i0n9Riy-57" target="aU7_cbtDEvk05i0n9Riy-59">
          <mxGeometry relative="1" as="geometry">
            <Array as="points">
              <mxPoint x="360" y="2090" />
              <mxPoint x="115" y="2090" />
            </Array>
          </mxGeometry>
        </mxCell>
        <mxCell id="aU7_cbtDEvk05i0n9Riy-76" style="edgeStyle=orthogonalEdgeStyle;rounded=0;orthogonalLoop=1;jettySize=auto;html=1;" edge="1" parent="WIyWlLk6GJQsqaUBKTNV-1" source="aU7_cbtDEvk05i0n9Riy-57" target="aU7_cbtDEvk05i0n9Riy-69">
          <mxGeometry relative="1" as="geometry">
            <Array as="points">
              <mxPoint x="390" y="1475" />
              <mxPoint x="410" y="1475" />
            </Array>
          </mxGeometry>
        </mxCell>
        <mxCell id="aU7_cbtDEvk05i0n9Riy-57" value="нет&lt;br&gt;" style="shape=parallelogram;perimeter=parallelogramPerimeter;whiteSpace=wrap;html=1;fixedSize=1;" vertex="1" parent="WIyWlLk6GJQsqaUBKTNV-1">
          <mxGeometry x="300" y="1890" width="120" height="60" as="geometry" />
        </mxCell>
        <mxCell id="aU7_cbtDEvk05i0n9Riy-62" value="" style="edgeStyle=orthogonalEdgeStyle;rounded=0;orthogonalLoop=1;jettySize=auto;html=1;" edge="1" parent="WIyWlLk6GJQsqaUBKTNV-1" source="aU7_cbtDEvk05i0n9Riy-59" target="aU7_cbtDEvk05i0n9Riy-61">
          <mxGeometry relative="1" as="geometry" />
        </mxCell>
        <mxCell id="aU7_cbtDEvk05i0n9Riy-59" value="Стандартное бронирование в нашем баре - 3 часа. Если вы планируете пировать дольше, сообщите об этом&lt;span style=&quot;font-size: medium; text-align: start;&quot;&gt;&lt;/span&gt;" style="shape=parallelogram;perimeter=parallelogramPerimeter;whiteSpace=wrap;html=1;fixedSize=1;" vertex="1" parent="WIyWlLk6GJQsqaUBKTNV-1">
          <mxGeometry x="20" y="2110" width="190" height="90" as="geometry" />
        </mxCell>
        <mxCell id="aU7_cbtDEvk05i0n9Riy-68" value="" style="edgeStyle=orthogonalEdgeStyle;rounded=0;orthogonalLoop=1;jettySize=auto;html=1;" edge="1" parent="WIyWlLk6GJQsqaUBKTNV-1" source="aU7_cbtDEvk05i0n9Riy-61" target="aU7_cbtDEvk05i0n9Riy-67">
          <mxGeometry relative="1" as="geometry" />
        </mxCell>
        <mxCell id="aU7_cbtDEvk05i0n9Riy-77" style="edgeStyle=orthogonalEdgeStyle;rounded=0;orthogonalLoop=1;jettySize=auto;html=1;" edge="1" parent="WIyWlLk6GJQsqaUBKTNV-1" source="aU7_cbtDEvk05i0n9Riy-61" target="aU7_cbtDEvk05i0n9Riy-69">
          <mxGeometry relative="1" as="geometry">
            <Array as="points">
              <mxPoint x="450" y="2265" />
            </Array>
          </mxGeometry>
        </mxCell>
        <mxCell id="aU7_cbtDEvk05i0n9Riy-61" value="&lt;p style=&quot;margin: 0cm 0cm 0cm 72pt; line-height: 16.8667px; font-size: 11pt; font-family: Arial, sans-serif; text-align: start; text-indent: -18pt;&quot; class=&quot;MsoNormal&quot;&gt;&lt;span lang=&quot;ru&quot;&gt;Ответ: Цифра&lt;/span&gt;&lt;/p&gt;" style="shape=parallelogram;perimeter=parallelogramPerimeter;whiteSpace=wrap;html=1;fixedSize=1;" vertex="1" parent="WIyWlLk6GJQsqaUBKTNV-1">
          <mxGeometry x="20" y="2240" width="150" height="50" as="geometry" />
        </mxCell>
        <mxCell id="aU7_cbtDEvk05i0n9Riy-65" value="" style="edgeStyle=orthogonalEdgeStyle;rounded=0;orthogonalLoop=1;jettySize=auto;html=1;" edge="1" parent="WIyWlLk6GJQsqaUBKTNV-1" source="aU7_cbtDEvk05i0n9Riy-63" target="aU7_cbtDEvk05i0n9Riy-59">
          <mxGeometry relative="1" as="geometry" />
        </mxCell>
        <mxCell id="aU7_cbtDEvk05i0n9Riy-63" value="Для компаний от 8 человек мы предлагаем сделать предзаказ, дабы накрыть столы к их прибытию. Ознакомиться с меню можно здесь - %ссылка%.&lt;span style=&quot;font-size: medium; text-align: start;&quot;&gt;&lt;/span&gt;" style="shape=parallelogram;perimeter=parallelogramPerimeter;whiteSpace=wrap;html=1;fixedSize=1;" vertex="1" parent="WIyWlLk6GJQsqaUBKTNV-1">
          <mxGeometry x="30" y="2000" width="260" height="60" as="geometry" />
        </mxCell>
        <mxCell id="aU7_cbtDEvk05i0n9Riy-78" style="edgeStyle=orthogonalEdgeStyle;rounded=0;orthogonalLoop=1;jettySize=auto;html=1;" edge="1" parent="WIyWlLk6GJQsqaUBKTNV-1" source="aU7_cbtDEvk05i0n9Riy-67" target="aU7_cbtDEvk05i0n9Riy-69">
          <mxGeometry relative="1" as="geometry">
            <Array as="points">
              <mxPoint x="450" y="2395" />
            </Array>
          </mxGeometry>
        </mxCell>
        <mxCell id="aU7_cbtDEvk05i0n9Riy-92" style="edgeStyle=orthogonalEdgeStyle;rounded=0;orthogonalLoop=1;jettySize=auto;html=1;entryX=0.25;entryY=1;entryDx=0;entryDy=0;" edge="1" parent="WIyWlLk6GJQsqaUBKTNV-1" source="aU7_cbtDEvk05i0n9Riy-67" target="aU7_cbtDEvk05i0n9Riy-91">
          <mxGeometry relative="1" as="geometry" />
        </mxCell>
        <mxCell id="aU7_cbtDEvk05i0n9Riy-67" value="успех" style="rounded=1;whiteSpace=wrap;html=1;" vertex="1" parent="WIyWlLk6GJQsqaUBKTNV-1">
          <mxGeometry x="35" y="2365" width="120" height="60" as="geometry" />
        </mxCell>
        <mxCell id="aU7_cbtDEvk05i0n9Riy-69" value="запись в бд&lt;br&gt;" style="whiteSpace=wrap;html=1;" vertex="1" parent="WIyWlLk6GJQsqaUBKTNV-1">
          <mxGeometry x="350" y="1000" width="120" height="60" as="geometry" />
        </mxCell>
        <mxCell id="aU7_cbtDEvk05i0n9Riy-79" value="1" style="text;html=1;align=center;verticalAlign=middle;resizable=0;points=[];autosize=1;strokeColor=none;fillColor=none;" vertex="1" parent="WIyWlLk6GJQsqaUBKTNV-1">
          <mxGeometry x="-5" y="238" width="30" height="30" as="geometry" />
        </mxCell>
        <mxCell id="aU7_cbtDEvk05i0n9Riy-81" value="2" style="text;html=1;align=center;verticalAlign=middle;resizable=0;points=[];autosize=1;strokeColor=none;fillColor=none;" vertex="1" parent="WIyWlLk6GJQsqaUBKTNV-1">
          <mxGeometry x="-15" y="548" width="30" height="30" as="geometry" />
        </mxCell>
        <mxCell id="aU7_cbtDEvk05i0n9Riy-83" value="3&lt;br&gt;" style="text;html=1;align=center;verticalAlign=middle;resizable=0;points=[];autosize=1;strokeColor=none;fillColor=none;" vertex="1" parent="WIyWlLk6GJQsqaUBKTNV-1">
          <mxGeometry x="-25" y="848" width="30" height="30" as="geometry" />
        </mxCell>
        <mxCell id="aU7_cbtDEvk05i0n9Riy-84" value="4" style="text;html=1;align=center;verticalAlign=middle;resizable=0;points=[];autosize=1;strokeColor=none;fillColor=none;" vertex="1" parent="WIyWlLk6GJQsqaUBKTNV-1">
          <mxGeometry x="-15" y="1018" width="30" height="30" as="geometry" />
        </mxCell>
        <mxCell id="aU7_cbtDEvk05i0n9Riy-85" value="5" style="text;html=1;align=center;verticalAlign=middle;resizable=0;points=[];autosize=1;strokeColor=none;fillColor=none;" vertex="1" parent="WIyWlLk6GJQsqaUBKTNV-1">
          <mxGeometry x="-25" y="1168" width="30" height="30" as="geometry" />
        </mxCell>
        <mxCell id="aU7_cbtDEvk05i0n9Riy-86" value="6" style="text;html=1;align=center;verticalAlign=middle;resizable=0;points=[];autosize=1;strokeColor=none;fillColor=none;" vertex="1" parent="WIyWlLk6GJQsqaUBKTNV-1">
          <mxGeometry x="-15" y="1348" width="30" height="30" as="geometry" />
        </mxCell>
        <mxCell id="aU7_cbtDEvk05i0n9Riy-87" value="7&lt;br&gt;" style="text;html=1;align=center;verticalAlign=middle;resizable=0;points=[];autosize=1;strokeColor=none;fillColor=none;" vertex="1" parent="WIyWlLk6GJQsqaUBKTNV-1">
          <mxGeometry x="-25" y="1520" width="30" height="30" as="geometry" />
        </mxCell>
        <mxCell id="aU7_cbtDEvk05i0n9Riy-88" value="8&lt;br&gt;" style="text;html=1;align=center;verticalAlign=middle;resizable=0;points=[];autosize=1;strokeColor=none;fillColor=none;" vertex="1" parent="WIyWlLk6GJQsqaUBKTNV-1">
          <mxGeometry x="-35" y="1738" width="30" height="30" as="geometry" />
        </mxCell>
        <mxCell id="aU7_cbtDEvk05i0n9Riy-89" value="9" style="text;html=1;align=center;verticalAlign=middle;resizable=0;points=[];autosize=1;strokeColor=none;fillColor=none;" vertex="1" parent="WIyWlLk6GJQsqaUBKTNV-1">
          <mxGeometry x="-45" y="2008" width="30" height="30" as="geometry" />
        </mxCell>
        <mxCell id="aU7_cbtDEvk05i0n9Riy-90" value="10&lt;br&gt;" style="text;html=1;align=center;verticalAlign=middle;resizable=0;points=[];autosize=1;strokeColor=none;fillColor=none;" vertex="1" parent="WIyWlLk6GJQsqaUBKTNV-1">
          <mxGeometry x="-50" y="2118" width="40" height="30" as="geometry" />
        </mxCell>
        <mxCell id="aU7_cbtDEvk05i0n9Riy-91" value="поиграть&amp;nbsp;&lt;br&gt;" style="shape=parallelogram;perimeter=parallelogramPerimeter;whiteSpace=wrap;html=1;fixedSize=1;" vertex="1" parent="WIyWlLk6GJQsqaUBKTNV-1">
          <mxGeometry x="630" y="380" width="120" height="60" as="geometry" />
        </mxCell>
      </root>
    </mxGraphModel>
  </diagram>
</mxfile>
